<svg id="Layer_1" data-name="Layer 1" xmlns="http://www.w3.org/2000/svg" viewBox="0 0 28 28">
  <defs>
    <style>
      .cls-1 {
        fill: #ff4500;
      }

      .cls-1, .cls-2 {
        stroke-width: 0px;
      }

      .cls-2 {
        fill: #fff;
      }
    </style>
  </defs>
  <circle class="cls-1" cx="14" cy="14" r="14"/>
  <path class="cls-2" d="M16.56,7.76c.22.93,1.05,1.62,2.04,1.62,1.16,0,2.1-.94,2.1-2.1s-.94-2.1-2.1-2.1c-1.01,0-1.86.72-2.06,1.67-1.7.18-3.02,1.62-3.02,3.37h0c-1.85.09-3.53.61-4.87,1.44-.5-.38-1.12-.61-1.8-.61-1.63,0-2.94,1.32-2.94,2.94,0,1.18.69,2.2,1.69,2.67.1,3.42,3.82,6.16,8.4,6.16s8.31-2.75,8.4-6.17c.99-.47,1.68-1.49,1.68-2.66,0-1.63-1.32-2.94-2.94-2.94-.67,0-1.3.23-1.79.61-1.35-.84-3.06-1.36-4.92-1.43h0c0-1.26.93-2.3,2.13-2.47h0ZM8.54,15.86c.05-1.07.76-1.89,1.58-1.89s1.45.87,1.41,1.93c-.05,1.07-.66,1.46-1.49,1.46s-1.55-.43-1.5-1.5ZM17.9,13.97c.83,0,1.53.82,1.58,1.89.05,1.07-.67,1.5-1.5,1.5s-1.44-.39-1.49-1.46c-.05-1.07.58-1.93,1.41-1.93ZM16.92,18.33c.15.02.25.18.19.32-.51,1.21-1.7,2.06-3.1,2.06s-2.59-.85-3.1-2.06c-.06-.14.04-.3.19-.32.91-.09,1.89-.14,2.91-.14s2,.05,2.91.14h0Z"/>
</svg>